<?xml version="1.0" encoding="UTF-8"?>
<!DOCTYPE svg PUBLIC "-//W3C//DTD SVG 1.1//EN" "http://www.w3.org/Graphics/SVG/1.1/DTD/svg11.dtd">
<!-- Creator: CorelDRAW -->
<svg xmlns="http://www.w3.org/2000/svg" xml:space="preserve" width="6.82666in" height="6.82666in" style="shape-rendering:geometricPrecision; text-rendering:geometricPrecision; image-rendering:optimizeQuality; fill-rule:evenodd; clip-rule:evenodd"
viewBox="0 0 6.82666 6.82666"
 xmlns:xlink="http://www.w3.org/1999/xlink">
 <defs>
  <style type="text/css">
   <![CDATA[
    .fil3 {fill:none}
    .fil0 {fill:#F39CC3}
    .fil2 {fill:#FECA5F}
    .fil1 {fill:#333333;fill-rule:nonzero}
   ]]>
  </style>
 </defs>
 <g id="Layer_x0020_1">
  <metadata id="CorelCorpID_0Corel-Layer"/>
  <rect class="fil0" x="0.853331" y="0.959996" width="5.01333" height="5.01333"/>
  <polygon class="fil1" points="1.06626,0.96 1.06625,5.75999 5.86667,5.75999 5.86667,5.97333 0.959996,5.97333 0.853744,5.97333 0.853744,5.86666 0.853756,0.96 "/>
  <polygon class="fil1" points="1.42481,1.41305 2.40239,3.10661 3.63016,2.24035 3.72511,2.17337 3.7835,2.27452 4.97295,4.33511 4.78878,4.44095 3.65772,2.48151 2.42995,3.34776 2.335,3.41475 2.27661,3.31359 1.24064,1.51888 "/>
  <path class="fil1" d="M5.11131 4.82805l0.00665748 -0.500902 -0.437122 0.244685 0.430465 0.256217zm0.22161 -0.682567l-0.0115512 0.869098 -0.00244882 0.184024 -0.157969 -0.0940236 -0.746886 -0.444555 -0.158449 -0.094311 0.160531 -0.0898583 0.758437 -0.424543 0.16078 -0.09 -0.00244488 0.184169z"/>
  <polygon class="fil2" points="5.11131,4.82805 5.11796,4.32715 4.68084,4.57183 "/>
 </g>
 <rect class="fil3" width="6.82666" height="6.82666"/>
</svg>
